<mxfile host="app.diagrams.net" modified="2023-10-23T21:51:58.156Z" agent="Mozilla/5.0 (Windows NT 10.0; Win64; x64) AppleWebKit/537.36 (KHTML, like Gecko) Chrome/118.0.0.0 Safari/537.36" etag="r6VHCFjHOdPjy-Pkt55w" version="22.0.6" type="device">
  <diagram name="Page-1" id="7Ji8Ye7_3zE567k-qHLi">
    <mxGraphModel dx="1034" dy="464" grid="1" gridSize="10" guides="1" tooltips="1" connect="1" arrows="1" fold="1" page="1" pageScale="1" pageWidth="850" pageHeight="1100" math="0" shadow="0">
      <root>
        <mxCell id="0" />
        <mxCell id="1" parent="0" />
        <mxCell id="D5C3F4Wc3mJbaDRNPgzP-21" value="" style="shape=cylinder3;whiteSpace=wrap;html=1;boundedLbl=1;backgroundOutline=1;size=15;" parent="1" vertex="1">
          <mxGeometry x="460" y="350" width="109" height="150" as="geometry" />
        </mxCell>
        <mxCell id="D5C3F4Wc3mJbaDRNPgzP-65" value="" style="shape=cylinder3;whiteSpace=wrap;html=1;boundedLbl=1;backgroundOutline=1;size=15;lid=0;" parent="1" vertex="1">
          <mxGeometry x="460" y="450" width="111" height="55" as="geometry" />
        </mxCell>
        <mxCell id="D5C3F4Wc3mJbaDRNPgzP-63" value="" style="shape=cylinder3;whiteSpace=wrap;html=1;boundedLbl=1;backgroundOutline=1;size=15;lid=0;" parent="1" vertex="1">
          <mxGeometry x="460" y="390" width="110" height="115" as="geometry" />
        </mxCell>
        <mxCell id="D5C3F4Wc3mJbaDRNPgzP-12" style="edgeStyle=orthogonalEdgeStyle;rounded=0;orthogonalLoop=1;jettySize=auto;html=1;exitX=1;exitY=0.5;exitDx=0;exitDy=0;entryX=0;entryY=0.75;entryDx=0;entryDy=0;" parent="1" source="D5C3F4Wc3mJbaDRNPgzP-47" target="D5C3F4Wc3mJbaDRNPgzP-5" edge="1">
          <mxGeometry relative="1" as="geometry">
            <Array as="points">
              <mxPoint x="550" y="165" />
            </Array>
          </mxGeometry>
        </mxCell>
        <mxCell id="D5C3F4Wc3mJbaDRNPgzP-1" value="" style="rounded=0;whiteSpace=wrap;html=1;" parent="1" vertex="1">
          <mxGeometry x="100" y="70" width="240" height="170" as="geometry" />
        </mxCell>
        <mxCell id="D5C3F4Wc3mJbaDRNPgzP-2" value="&lt;h1&gt;User&lt;/h1&gt;&lt;p&gt;&lt;br&gt;&lt;/p&gt;" style="text;html=1;strokeColor=none;fillColor=none;spacing=5;spacingTop=-20;whiteSpace=wrap;overflow=hidden;rounded=0;" parent="1" vertex="1">
          <mxGeometry x="110" y="80" width="190" height="120" as="geometry" />
        </mxCell>
        <mxCell id="D5C3F4Wc3mJbaDRNPgzP-52" style="edgeStyle=orthogonalEdgeStyle;rounded=0;orthogonalLoop=1;jettySize=auto;html=1;exitX=1;exitY=0.5;exitDx=0;exitDy=0;entryX=0;entryY=0.5;entryDx=0;entryDy=0;" parent="1" source="D5C3F4Wc3mJbaDRNPgzP-4" target="D5C3F4Wc3mJbaDRNPgzP-49" edge="1">
          <mxGeometry relative="1" as="geometry" />
        </mxCell>
        <mxCell id="D5C3F4Wc3mJbaDRNPgzP-4" value="" style="rounded=0;whiteSpace=wrap;html=1;" parent="1" vertex="1">
          <mxGeometry x="640" y="75" width="240" height="170" as="geometry" />
        </mxCell>
        <mxCell id="D5C3F4Wc3mJbaDRNPgzP-5" value="&lt;h1&gt;Guard node&lt;/h1&gt;" style="text;html=1;strokeColor=none;fillColor=none;spacing=5;spacingTop=-20;whiteSpace=wrap;overflow=hidden;rounded=0;" parent="1" vertex="1">
          <mxGeometry x="640" y="75" width="190" height="120" as="geometry" />
        </mxCell>
        <mxCell id="D5C3F4Wc3mJbaDRNPgzP-15" style="edgeStyle=orthogonalEdgeStyle;rounded=0;orthogonalLoop=1;jettySize=auto;html=1;exitX=0.75;exitY=1;exitDx=0;exitDy=0;entryX=1;entryY=0.5;entryDx=0;entryDy=0;" parent="1" source="D5C3F4Wc3mJbaDRNPgzP-6" target="D5C3F4Wc3mJbaDRNPgzP-10" edge="1">
          <mxGeometry relative="1" as="geometry" />
        </mxCell>
        <mxCell id="D5C3F4Wc3mJbaDRNPgzP-6" value="" style="rounded=0;whiteSpace=wrap;html=1;" parent="1" vertex="1">
          <mxGeometry x="630" y="590" width="240" height="170" as="geometry" />
        </mxCell>
        <mxCell id="D5C3F4Wc3mJbaDRNPgzP-7" value="&lt;h1&gt;Exit node&lt;/h1&gt;" style="text;html=1;strokeColor=none;fillColor=none;spacing=5;spacingTop=-20;whiteSpace=wrap;overflow=hidden;rounded=0;" parent="1" vertex="1">
          <mxGeometry x="630" y="590" width="190" height="120" as="geometry" />
        </mxCell>
        <mxCell id="D5C3F4Wc3mJbaDRNPgzP-14" style="edgeStyle=orthogonalEdgeStyle;rounded=0;orthogonalLoop=1;jettySize=auto;html=1;exitX=0.75;exitY=1;exitDx=0;exitDy=0;entryX=0.553;entryY=0.996;entryDx=0;entryDy=0;entryPerimeter=0;" parent="1" source="D5C3F4Wc3mJbaDRNPgzP-54" target="D5C3F4Wc3mJbaDRNPgzP-6" edge="1">
          <mxGeometry relative="1" as="geometry" />
        </mxCell>
        <mxCell id="D5C3F4Wc3mJbaDRNPgzP-56" style="edgeStyle=orthogonalEdgeStyle;rounded=0;orthogonalLoop=1;jettySize=auto;html=1;exitX=0.75;exitY=1;exitDx=0;exitDy=0;entryX=0.75;entryY=0;entryDx=0;entryDy=0;" parent="1" source="D5C3F4Wc3mJbaDRNPgzP-8" target="D5C3F4Wc3mJbaDRNPgzP-54" edge="1">
          <mxGeometry relative="1" as="geometry" />
        </mxCell>
        <mxCell id="D5C3F4Wc3mJbaDRNPgzP-8" value="" style="rounded=0;whiteSpace=wrap;html=1;" parent="1" vertex="1">
          <mxGeometry x="870" y="310" width="240" height="170" as="geometry" />
        </mxCell>
        <mxCell id="D5C3F4Wc3mJbaDRNPgzP-9" value="&lt;h1&gt;Middle node&lt;/h1&gt;" style="text;html=1;strokeColor=none;fillColor=none;spacing=5;spacingTop=-20;whiteSpace=wrap;overflow=hidden;rounded=0;" parent="1" vertex="1">
          <mxGeometry x="870" y="305" width="190" height="120" as="geometry" />
        </mxCell>
        <mxCell id="D5C3F4Wc3mJbaDRNPgzP-10" value="" style="rounded=0;whiteSpace=wrap;html=1;" parent="1" vertex="1">
          <mxGeometry x="100" y="620" width="240" height="170" as="geometry" />
        </mxCell>
        <mxCell id="D5C3F4Wc3mJbaDRNPgzP-11" value="&lt;h1&gt;Server&lt;/h1&gt;" style="text;html=1;strokeColor=none;fillColor=none;spacing=5;spacingTop=-20;whiteSpace=wrap;overflow=hidden;rounded=0;" parent="1" vertex="1">
          <mxGeometry x="110" y="630" width="190" height="120" as="geometry" />
        </mxCell>
        <mxCell id="D5C3F4Wc3mJbaDRNPgzP-23" style="edgeStyle=orthogonalEdgeStyle;rounded=0;orthogonalLoop=1;jettySize=auto;html=1;exitX=1;exitY=0.5;exitDx=0;exitDy=0;entryX=0.001;entryY=0.574;entryDx=0;entryDy=0;entryPerimeter=0;" parent="1" source="D5C3F4Wc3mJbaDRNPgzP-16" target="D5C3F4Wc3mJbaDRNPgzP-21" edge="1">
          <mxGeometry relative="1" as="geometry" />
        </mxCell>
        <mxCell id="D5C3F4Wc3mJbaDRNPgzP-31" style="edgeStyle=orthogonalEdgeStyle;rounded=0;orthogonalLoop=1;jettySize=auto;html=1;exitX=0;exitY=0.5;exitDx=0;exitDy=0;entryX=0;entryY=0.75;entryDx=0;entryDy=0;" parent="1" source="D5C3F4Wc3mJbaDRNPgzP-28" target="D5C3F4Wc3mJbaDRNPgzP-1" edge="1">
          <mxGeometry relative="1" as="geometry">
            <Array as="points">
              <mxPoint x="80" y="435" />
              <mxPoint x="80" y="198" />
            </Array>
          </mxGeometry>
        </mxCell>
        <mxCell id="D5C3F4Wc3mJbaDRNPgzP-32" style="edgeStyle=orthogonalEdgeStyle;rounded=0;orthogonalLoop=1;jettySize=auto;html=1;exitX=0;exitY=0.5;exitDx=0;exitDy=0;entryX=0;entryY=0.5;entryDx=0;entryDy=0;" parent="1" source="D5C3F4Wc3mJbaDRNPgzP-16" target="D5C3F4Wc3mJbaDRNPgzP-28" edge="1">
          <mxGeometry relative="1" as="geometry" />
        </mxCell>
        <mxCell id="D5C3F4Wc3mJbaDRNPgzP-33" style="edgeStyle=orthogonalEdgeStyle;rounded=0;orthogonalLoop=1;jettySize=auto;html=1;entryX=0.611;entryY=1.018;entryDx=0;entryDy=0;entryPerimeter=0;" parent="1" target="D5C3F4Wc3mJbaDRNPgzP-4" edge="1">
          <mxGeometry relative="1" as="geometry">
            <mxPoint x="80" y="420" as="sourcePoint" />
            <Array as="points">
              <mxPoint x="80" y="300" />
              <mxPoint x="780" y="300" />
              <mxPoint x="780" y="247" />
              <mxPoint x="787" y="247" />
            </Array>
          </mxGeometry>
        </mxCell>
        <mxCell id="D5C3F4Wc3mJbaDRNPgzP-34" style="edgeStyle=orthogonalEdgeStyle;rounded=0;orthogonalLoop=1;jettySize=auto;html=1;exitX=0;exitY=0.5;exitDx=0;exitDy=0;entryX=0;entryY=0.5;entryDx=0;entryDy=0;" parent="1" source="D5C3F4Wc3mJbaDRNPgzP-16" target="D5C3F4Wc3mJbaDRNPgzP-8" edge="1">
          <mxGeometry relative="1" as="geometry">
            <Array as="points">
              <mxPoint x="80" y="435" />
              <mxPoint x="80" y="300" />
              <mxPoint x="780" y="300" />
              <mxPoint x="780" y="395" />
            </Array>
          </mxGeometry>
        </mxCell>
        <mxCell id="D5C3F4Wc3mJbaDRNPgzP-35" style="edgeStyle=orthogonalEdgeStyle;rounded=0;orthogonalLoop=1;jettySize=auto;html=1;exitX=0;exitY=0.5;exitDx=0;exitDy=0;entryX=0.637;entryY=0.007;entryDx=0;entryDy=0;entryPerimeter=0;" parent="1" source="D5C3F4Wc3mJbaDRNPgzP-16" target="D5C3F4Wc3mJbaDRNPgzP-6" edge="1">
          <mxGeometry relative="1" as="geometry">
            <Array as="points">
              <mxPoint x="80" y="435" />
              <mxPoint x="80" y="300" />
              <mxPoint x="781" y="300" />
              <mxPoint x="781" y="571" />
            </Array>
          </mxGeometry>
        </mxCell>
        <mxCell id="D5C3F4Wc3mJbaDRNPgzP-16" value="" style="rounded=0;whiteSpace=wrap;html=1;" parent="1" vertex="1">
          <mxGeometry x="110" y="350" width="240" height="170" as="geometry" />
        </mxCell>
        <mxCell id="D5C3F4Wc3mJbaDRNPgzP-17" value="&lt;h1&gt;Tor directory&lt;/h1&gt;" style="text;html=1;strokeColor=none;fillColor=none;spacing=5;spacingTop=-20;whiteSpace=wrap;overflow=hidden;rounded=0;" parent="1" vertex="1">
          <mxGeometry x="120" y="350" width="190" height="120" as="geometry" />
        </mxCell>
        <mxCell id="D5C3F4Wc3mJbaDRNPgzP-25" value="&lt;font style=&quot;font-size: 18px;&quot;&gt;Networking&lt;/font&gt;" style="text;html=1;strokeColor=#000000;fillColor=none;align=center;verticalAlign=middle;whiteSpace=wrap;rounded=0;" parent="1" vertex="1">
          <mxGeometry x="230" y="140" width="100" height="40" as="geometry" />
        </mxCell>
        <mxCell id="D5C3F4Wc3mJbaDRNPgzP-26" value="&lt;font style=&quot;font-size: 18px;&quot;&gt;Networking&lt;/font&gt;" style="text;html=1;strokeColor=#000000;fillColor=none;align=center;verticalAlign=middle;whiteSpace=wrap;rounded=0;" parent="1" vertex="1">
          <mxGeometry x="680" y="180" width="100" height="40" as="geometry" />
        </mxCell>
        <mxCell id="D5C3F4Wc3mJbaDRNPgzP-27" value="&lt;font style=&quot;font-size: 18px;&quot;&gt;Networking&lt;/font&gt;" style="text;html=1;strokeColor=#000000;fillColor=none;align=center;verticalAlign=middle;whiteSpace=wrap;rounded=0;" parent="1" vertex="1">
          <mxGeometry x="990" y="410" width="100" height="40" as="geometry" />
        </mxCell>
        <mxCell id="D5C3F4Wc3mJbaDRNPgzP-28" value="&lt;font style=&quot;font-size: 18px;&quot;&gt;Networking&lt;/font&gt;" style="text;html=1;strokeColor=#000000;fillColor=none;align=center;verticalAlign=middle;whiteSpace=wrap;rounded=0;" parent="1" vertex="1">
          <mxGeometry x="120" y="400" width="100" height="40" as="geometry" />
        </mxCell>
        <mxCell id="D5C3F4Wc3mJbaDRNPgzP-29" value="&lt;font style=&quot;font-size: 18px;&quot;&gt;Networking&lt;/font&gt;" style="text;html=1;strokeColor=#000000;fillColor=none;align=center;verticalAlign=middle;whiteSpace=wrap;rounded=0;" parent="1" vertex="1">
          <mxGeometry x="710" y="690" width="100" height="40" as="geometry" />
        </mxCell>
        <mxCell id="D5C3F4Wc3mJbaDRNPgzP-30" value="&lt;font style=&quot;font-size: 18px;&quot;&gt;Networking&lt;/font&gt;" style="text;html=1;strokeColor=#000000;fillColor=none;align=center;verticalAlign=middle;whiteSpace=wrap;rounded=0;" parent="1" vertex="1">
          <mxGeometry x="220" y="690" width="100" height="40" as="geometry" />
        </mxCell>
        <mxCell id="D5C3F4Wc3mJbaDRNPgzP-36" value="Database" style="text;html=1;strokeColor=none;fillColor=none;align=center;verticalAlign=middle;whiteSpace=wrap;rounded=0;" parent="1" vertex="1">
          <mxGeometry x="480" y="455" width="60" height="50" as="geometry" />
        </mxCell>
        <mxCell id="D5C3F4Wc3mJbaDRNPgzP-37" value="&lt;font style=&quot;font-size: 18px;&quot;&gt;DB wrapper&lt;/font&gt;" style="text;html=1;strokeColor=#000000;fillColor=none;align=center;verticalAlign=middle;whiteSpace=wrap;rounded=0;" parent="1" vertex="1">
          <mxGeometry x="240" y="460" width="100" height="40" as="geometry" />
        </mxCell>
        <mxCell id="D5C3F4Wc3mJbaDRNPgzP-38" value="&lt;font style=&quot;font-size: 18px;&quot;&gt;logic&lt;/font&gt;" style="text;html=1;strokeColor=#000000;fillColor=none;align=center;verticalAlign=middle;whiteSpace=wrap;rounded=0;" parent="1" vertex="1">
          <mxGeometry x="100" y="140" width="100" height="40" as="geometry" />
        </mxCell>
        <mxCell id="D5C3F4Wc3mJbaDRNPgzP-39" value="&lt;font style=&quot;font-size: 18px;&quot;&gt;logic&lt;/font&gt;" style="text;html=1;strokeColor=#000000;fillColor=none;align=center;verticalAlign=middle;whiteSpace=wrap;rounded=0;" parent="1" vertex="1">
          <mxGeometry x="760" y="640" width="100" height="40" as="geometry" />
        </mxCell>
        <mxCell id="D5C3F4Wc3mJbaDRNPgzP-40" value="&lt;font style=&quot;font-size: 18px;&quot;&gt;logic&lt;/font&gt;" style="text;html=1;strokeColor=#000000;fillColor=none;align=center;verticalAlign=middle;whiteSpace=wrap;rounded=0;" parent="1" vertex="1">
          <mxGeometry x="770" y="115" width="100" height="40" as="geometry" />
        </mxCell>
        <mxCell id="D5C3F4Wc3mJbaDRNPgzP-41" value="&lt;font style=&quot;font-size: 18px;&quot;&gt;logic&lt;/font&gt;" style="text;html=1;strokeColor=#000000;fillColor=none;align=center;verticalAlign=middle;whiteSpace=wrap;rounded=0;" parent="1" vertex="1">
          <mxGeometry x="880" y="370" width="100" height="40" as="geometry" />
        </mxCell>
        <mxCell id="D5C3F4Wc3mJbaDRNPgzP-42" value="&lt;font style=&quot;font-size: 18px;&quot;&gt;logic&lt;/font&gt;" style="text;html=1;strokeColor=#000000;fillColor=none;align=center;verticalAlign=middle;whiteSpace=wrap;rounded=0;" parent="1" vertex="1">
          <mxGeometry x="100" y="730" width="100" height="40" as="geometry" />
        </mxCell>
        <mxCell id="D5C3F4Wc3mJbaDRNPgzP-43" value="&lt;font style=&quot;font-size: 18px;&quot;&gt;logic&lt;/font&gt;" style="text;html=1;strokeColor=#000000;fillColor=none;align=center;verticalAlign=middle;whiteSpace=wrap;rounded=0;" parent="1" vertex="1">
          <mxGeometry x="120" y="465" width="100" height="40" as="geometry" />
        </mxCell>
        <mxCell id="D5C3F4Wc3mJbaDRNPgzP-44" value="&lt;font style=&quot;font-size: 18px;&quot;&gt;GUI&lt;/font&gt;" style="text;html=1;strokeColor=#000000;fillColor=none;align=center;verticalAlign=middle;whiteSpace=wrap;rounded=0;" parent="1" vertex="1">
          <mxGeometry x="165" y="190" width="100" height="40" as="geometry" />
        </mxCell>
        <mxCell id="D5C3F4Wc3mJbaDRNPgzP-48" value="" style="edgeStyle=orthogonalEdgeStyle;rounded=0;orthogonalLoop=1;jettySize=auto;html=1;exitX=1;exitY=0.5;exitDx=0;exitDy=0;entryX=0;entryY=0.75;entryDx=0;entryDy=0;" parent="1" source="D5C3F4Wc3mJbaDRNPgzP-1" target="D5C3F4Wc3mJbaDRNPgzP-47" edge="1">
          <mxGeometry relative="1" as="geometry">
            <mxPoint x="340" y="155" as="sourcePoint" />
            <mxPoint x="640" y="165" as="targetPoint" />
            <Array as="points">
              <mxPoint x="340" y="170" />
            </Array>
          </mxGeometry>
        </mxCell>
        <mxCell id="D5C3F4Wc3mJbaDRNPgzP-47" value="&lt;span style=&quot;font-size: 18px;&quot;&gt;&amp;nbsp;3 layers of encryption&lt;/span&gt;" style="text;html=1;strokeColor=none;fillColor=none;align=center;verticalAlign=middle;whiteSpace=wrap;rounded=0;" parent="1" vertex="1">
          <mxGeometry x="450" y="140" width="100" height="40" as="geometry" />
        </mxCell>
        <mxCell id="D5C3F4Wc3mJbaDRNPgzP-53" style="edgeStyle=orthogonalEdgeStyle;rounded=0;orthogonalLoop=1;jettySize=auto;html=1;exitX=1;exitY=0.5;exitDx=0;exitDy=0;entryX=1;entryY=0.5;entryDx=0;entryDy=0;" parent="1" source="D5C3F4Wc3mJbaDRNPgzP-49" target="D5C3F4Wc3mJbaDRNPgzP-8" edge="1">
          <mxGeometry relative="1" as="geometry" />
        </mxCell>
        <mxCell id="D5C3F4Wc3mJbaDRNPgzP-49" value="&lt;span style=&quot;font-size: 18px;&quot;&gt;&amp;nbsp;2 layers of encryption&lt;/span&gt;" style="text;html=1;strokeColor=none;fillColor=none;align=center;verticalAlign=middle;whiteSpace=wrap;rounded=0;" parent="1" vertex="1">
          <mxGeometry x="1050" y="230" width="100" height="40" as="geometry" />
        </mxCell>
        <mxCell id="D5C3F4Wc3mJbaDRNPgzP-51" style="edgeStyle=orthogonalEdgeStyle;rounded=0;orthogonalLoop=1;jettySize=auto;html=1;exitX=1;exitY=0.75;exitDx=0;exitDy=0;entryX=1;entryY=0.5;entryDx=0;entryDy=0;" parent="1" source="D5C3F4Wc3mJbaDRNPgzP-49" target="D5C3F4Wc3mJbaDRNPgzP-49" edge="1">
          <mxGeometry relative="1" as="geometry" />
        </mxCell>
        <mxCell id="D5C3F4Wc3mJbaDRNPgzP-54" value="&lt;span style=&quot;font-size: 18px;&quot;&gt;&amp;nbsp;1 layer of encryption&lt;/span&gt;" style="text;html=1;strokeColor=none;fillColor=none;align=center;verticalAlign=middle;whiteSpace=wrap;rounded=0;" parent="1" vertex="1">
          <mxGeometry x="980" y="640" width="100" height="40" as="geometry" />
        </mxCell>
        <mxCell id="D5C3F4Wc3mJbaDRNPgzP-57" value="&lt;font style=&quot;font-size: 18px;&quot;&gt;decryptor&lt;/font&gt;" style="text;html=1;strokeColor=#000000;fillColor=none;align=center;verticalAlign=middle;whiteSpace=wrap;rounded=0;" parent="1" vertex="1">
          <mxGeometry x="640" y="640" width="100" height="40" as="geometry" />
        </mxCell>
        <mxCell id="D5C3F4Wc3mJbaDRNPgzP-58" value="&lt;font style=&quot;font-size: 18px;&quot;&gt;decryptor&lt;/font&gt;" style="text;html=1;strokeColor=#000000;fillColor=none;align=center;verticalAlign=middle;whiteSpace=wrap;rounded=0;" parent="1" vertex="1">
          <mxGeometry x="880" y="425" width="100" height="40" as="geometry" />
        </mxCell>
        <mxCell id="D5C3F4Wc3mJbaDRNPgzP-59" value="&lt;font style=&quot;font-size: 18px;&quot;&gt;decryptor&lt;/font&gt;" style="text;html=1;strokeColor=#000000;fillColor=none;align=center;verticalAlign=middle;whiteSpace=wrap;rounded=0;" parent="1" vertex="1">
          <mxGeometry x="660" y="120" width="100" height="40" as="geometry" />
        </mxCell>
        <mxCell id="D5C3F4Wc3mJbaDRNPgzP-60" value="&lt;font style=&quot;font-size: 18px;&quot;&gt;encryptor&lt;/font&gt;" style="text;html=1;strokeColor=#000000;fillColor=none;align=center;verticalAlign=middle;whiteSpace=wrap;rounded=0;" parent="1" vertex="1">
          <mxGeometry x="200" y="90" width="100" height="40" as="geometry" />
        </mxCell>
        <mxCell id="D5C3F4Wc3mJbaDRNPgzP-62" style="edgeStyle=orthogonalEdgeStyle;rounded=0;orthogonalLoop=1;jettySize=auto;html=1;exitX=0;exitY=0.25;exitDx=0;exitDy=0;entryX=0.005;entryY=0.139;entryDx=0;entryDy=0;entryPerimeter=0;" parent="1" source="D5C3F4Wc3mJbaDRNPgzP-9" target="D5C3F4Wc3mJbaDRNPgzP-9" edge="1">
          <mxGeometry relative="1" as="geometry" />
        </mxCell>
        <mxCell id="D5C3F4Wc3mJbaDRNPgzP-64" value="" style="shape=cylinder3;whiteSpace=wrap;html=1;boundedLbl=1;backgroundOutline=1;size=15;lid=0;" parent="1" vertex="1">
          <mxGeometry x="460" y="420" width="111" height="85" as="geometry" />
        </mxCell>
        <mxCell id="D5C3F4Wc3mJbaDRNPgzP-22" value="" style="dashed=0;outlineConnect=0;html=1;align=center;labelPosition=center;verticalLabelPosition=bottom;verticalAlign=top;shape=mxgraph.weblogos.mongodb" parent="1" vertex="1">
          <mxGeometry x="493.9" y="383.79999999999995" width="41.2" height="86.2" as="geometry" />
        </mxCell>
        <mxCell id="D5C3F4Wc3mJbaDRNPgzP-66" value="" style="shape=cylinder3;whiteSpace=wrap;html=1;boundedLbl=1;backgroundOutline=1;size=15;lid=0;" parent="1" vertex="1">
          <mxGeometry x="460" y="470" width="111" height="35" as="geometry" />
        </mxCell>
      </root>
    </mxGraphModel>
  </diagram>
</mxfile>
